<?xml version="1.0" standalone="no"?>
<!DOCTYPE svg PUBLIC "-//W3C//DTD SVG 20010904//EN"
 "http://www.w3.org/TR/2001/REC-SVG-20010904/DTD/svg10.dtd">
<svg version="1.0" xmlns="http://www.w3.org/2000/svg"
 width="800px" height="800px" viewBox="0 0 1600.000000 809.000000"
 preserveAspectRatio="xMidYMid meet">

<g transform="translate(0.000000,809.000000) scale(0.100000,-0.100000)"
fill="#000000" stroke="none">
<path d="M3960 8061 c-69 -21 -130 -73 -166 -141 -18 -33 -19 -90 -24 -1250
l-5 -1215 -25 -7 c-14 -4 -38 -10 -53 -13 -43 -9 -116 -90 -169 -187 -52 -94
-56 -118 -32 -197 21 -72 39 -98 112 -165 l62 -58 0 33 c0 26 -10 42 -55 84
-59 54 -67 81 -36 109 23 21 47 12 63 -25 8 -17 21 -29 32 -29 16 0 18 5 13
37 -7 40 6 110 28 158 l15 30 75 -3 c62 -3 84 0 120 18 37 18 48 20 60 10 34
-28 64 43 51 116 -4 19 -22 52 -41 72 -33 36 -35 37 -109 37 l-76 0 0 1190 0
1190 24 50 c28 60 56 87 116 114 l45 21 4135 0 c2885 0 4147 -3 4173 -11 47
-13 111 -69 140 -123 l22 -41 3 -1183 3 -1182 -23 -9 c-74 -29 -106 -142 -88
-311 l11 -105 -35 -120 c-60 -204 -75 -259 -81 -297 -5 -31 -10 -38 -28 -38
-27 0 -177 40 -275 74 -52 17 -74 21 -77 13 -5 -15 -52 -175 -71 -242 -14 -50
-14 -50 14 -73 38 -31 138 -78 207 -96 31 -8 59 -17 62 -20 3 -3 -5 -38 -18
-78 -33 -99 -33 -251 0 -438 22 -124 23 -152 18 -350 -4 -118 -10 -277 -13
-352 l-7 -138 -3214 0 -3213 0 0 -90 0 -90 -479 0 c-433 0 -480 -2 -492 -17
-21 -25 -78 -45 -109 -38 -15 3 -38 17 -50 31 -23 23 -29 24 -151 24 l-128 0
-3 152 -3 153 -110 -3 c-112 -4 -306 16 -435 43 -39 8 -74 15 -78 15 -4 0 -6
-621 -4 -1380 l2 -1380 114 0 113 0 7 57 c3 32 38 429 76 883 39 454 73 831
75 838 2 6 11 12 19 12 18 0 20 -29 51 -835 14 -357 28 -719 31 -802 l7 -153
117 0 117 0 7 113 c9 151 73 1157 91 1435 8 123 17 227 20 231 2 5 1716 8
3807 7 l3803 -1 6 -195 c5 -173 9 -208 37 -316 45 -176 133 -482 224 -784 113
-370 130 -437 118 -461 -12 -22 -28 -26 -125 -33 -79 -5 -175 -40 -158 -57 13
-13 131 -28 226 -29 44 0 66 -4 62 -10 -4 -6 -39 -26 -78 -45 -80 -38 -144
-92 -129 -107 13 -13 156 23 251 63 53 22 76 28 81 19 5 -8 22 -7 65 5 50 15
56 20 52 38 -3 12 -11 48 -17 80 -9 40 -17 57 -29 57 -13 0 -13 2 -2 9 12 7
10 28 -8 128 -15 84 -24 195 -31 374 -5 139 -15 333 -21 429 -8 109 -10 266
-6 415 6 231 8 245 41 375 49 187 176 788 176 827 0 8 -5 11 -12 8 -7 -4 -5 0
5 8 16 13 15 18 -12 78 -69 154 -104 401 -99 707 2 110 5 203 8 206 3 2 39 6
80 7 102 3 100 1 85 59 -7 26 -15 52 -18 57 -3 5 24 24 59 42 77 40 129 97
149 165 30 101 14 153 -95 320 -123 188 -129 216 -80 364 24 74 30 108 30 179
0 106 -12 153 -49 196 -15 17 -39 53 -54 78 -51 89 -132 134 -231 127 l-56 -3
-2 1181 -3 1180 -30 59 c-34 66 -93 118 -153 135 -44 12 -8302 13 -8342 1z"/>
<path d="M4266 7644 c-29 -29 -15 -64 25 -64 23 0 30 6 35 27 5 19 2 30 -11
40 -24 17 -30 16 -49 -3z"/>
<path d="M11204 7276 c-18 -13 -19 -28 -19 -194 0 -163 2 -182 19 -201 19 -21
24 -21 468 -21 435 0 449 1 468 20 18 18 20 33 20 193 0 140 -3 177 -16 195
l-15 22 -453 0 c-375 0 -456 -2 -472 -14z m328 -183 c2 -29 7 -38 21 -37 9 1
17 -2 17 -7 0 -5 -13 -9 -30 -9 -29 0 -30 2 -30 45 0 54 18 60 22 8z m228 33
c0 -3 -4 -8 -10 -11 -5 -3 -10 -1 -10 4 0 6 5 11 10 11 6 0 10 -2 10 -4z
m-126 -32 c14 -14 18 -14 31 -1 8 9 24 13 35 10 30 -8 29 -79 -1 -88 -12 -4
-26 -2 -32 4 -8 8 -4 11 14 12 l24 0 -22 9 c-13 5 -23 15 -23 22 -1 8 -6 6
-15 -5 -17 -24 -58 -19 -63 7 -3 11 4 26 14 33 22 16 19 16 38 -3z m196 -25
c0 -16 -4 -29 -10 -29 -5 0 -10 11 -10 25 0 14 -4 25 -10 25 -5 0 -10 -11 -10
-25 0 -14 -4 -25 -10 -25 -18 0 -11 58 8 62 29 7 42 -3 42 -33z m-70 1 c0 -16
-4 -30 -10 -30 -5 0 -10 14 -10 30 0 17 5 30 10 30 6 0 10 -13 10 -30z"/>
<path d="M11602 7076 c1 -10 8 -17 13 -17 15 1 12 24 -3 29 -9 3 -13 -2 -10
-12z"/>
<path d="M11677 7083 c-12 -11 -8 -23 8 -23 8 0 15 7 15 15 0 16 -12 20 -23 8z"/>
<path d="M2127 7020 l-47 -30 0 -91 0 -90 53 3 52 3 3 109 c1 60 -1 113 -5
117 -5 5 -29 -5 -56 -21z"/>
<path d="M2490 6720 c-7 -5 -13 -22 -13 -40 0 -24 10 -42 46 -78 l47 -46 45
44 c50 49 62 78 46 108 -10 18 -21 21 -84 20 -41 0 -80 -4 -87 -8z"/>
<path d="M674 6653 c-25 -25 -16 -57 29 -101 l44 -43 46 50 c26 28 47 54 47
58 0 5 -7 18 -15 30 -12 18 -24 21 -76 20 -38 0 -66 -5 -75 -14z"/>
<path d="M10585 6385 c-29 -28 -31 -51 -8 -84 16 -23 13 -30 -103 -262 -118
-236 -119 -237 -154 -242 -33 -4 -41 1 -135 94 -95 94 -101 102 -97 135 3 24
-1 41 -13 54 -21 23 -72 26 -100 6 -24 -17 -25 -78 -2 -104 16 -17 10 -39
-109 -398 -70 -208 -129 -382 -133 -385 -3 -4 -19 -9 -34 -13 -25 -6 -38 3
-126 90 -97 95 -99 97 -94 135 7 50 -16 79 -63 79 -63 0 -94 -63 -55 -111 15
-19 28 -23 63 -22 42 1 46 -2 139 -94 94 -92 97 -97 92 -133 -4 -29 -1 -42 16
-59 30 -30 74 -27 100 5 26 33 26 54 1 86 l-19 25 128 384 c159 477 138 455
287 307 99 -98 102 -101 97 -138 -4 -29 -1 -42 16 -59 30 -30 74 -27 100 5 25
32 26 52 6 81 -15 21 -9 36 105 263 92 184 124 240 139 240 15 0 39 -63 146
-385 l129 -384 -18 -33 c-23 -43 -18 -76 16 -101 21 -15 32 -18 48 -11 21 9
21 9 -5 57 -14 26 -25 52 -25 58 0 21 20 6 46 -35 16 -25 32 -42 36 -40 13 8
9 48 -7 71 -15 21 -9 35 104 261 106 211 122 239 143 238 20 -1 39 -34 144
-241 110 -217 120 -242 108 -260 -34 -48 -2 -108 58 -108 58 0 88 67 50 114
-22 27 -36 -24 122 447 93 278 121 352 135 352 35 0 61 29 61 70 0 63 -61 91
-111 52 -27 -23 -30 -73 -5 -101 17 -19 14 -33 -111 -408 -111 -331 -132 -388
-149 -388 -15 0 -45 52 -139 237 -105 209 -118 240 -107 258 32 51 2 110 -56
110 -55 0 -83 -49 -57 -99 15 -30 15 -32 -105 -271 -93 -187 -125 -241 -138
-238 -12 2 -49 100 -146 387 -126 376 -129 384 -112 411 22 38 20 76 -4 100
-27 27 -66 25 -95 -5z"/>
<path d="M3856 4633 c-13 -40 -113 -68 -175 -48 -16 5 -21 4 -17 -4 11 -18 75
-24 121 -11 47 13 90 50 83 72 -3 8 -7 5 -12 -9z"/>
<path d="M4177 4579 c15 -29 338 -448 346 -449 4 0 -60 89 -142 198 -147 193
-220 283 -204 251z"/>
<path d="M4106 4240 c10 -20 104 -140 110 -140 3 0 -2 13 -11 28 -19 31 -111
135 -99 112z"/>
<path d="M3742 3988 c104 -156 279 -397 505 -697 119 -157 217 -290 219 -296
2 -5 -11 -27 -29 -48 l-32 -38 -70 58 c-163 133 -434 418 -627 658 -73 90
-212 276 -227 303 -5 9 -12 14 -15 11 -15 -15 292 -407 481 -614 123 -135 275
-281 382 -369 l72 -59 45 45 46 45 -244 324 c-257 342 -398 538 -493 682 -32
48 -62 87 -67 87 -5 0 19 -42 54 -92z"/>
<path d="M14591 2293 c-96 -35 -171 -148 -171 -255 0 -57 35 -141 76 -182 44
-44 127 -76 193 -76 139 1 261 127 261 269 0 49 -39 140 -76 177 -73 73 -192
101 -283 67z"/>
<path d="M6870 1185 c0 -23 5 -46 12 -53 9 -9 300 -12 1249 -12 681 0 1240 3
1242 8 3 4 8 26 12 49 l7 43 -1261 2 -1261 3 0 -40z"/>
</g>
</svg>
