<?xml version="1.0" standalone="no"?>
<!DOCTYPE svg PUBLIC "-//W3C//DTD SVG 20010904//EN"
 "http://www.w3.org/TR/2001/REC-SVG-20010904/DTD/svg10.dtd">
<svg version="1.0" xmlns="http://www.w3.org/2000/svg"
 width="1079.000000pt" height="1079.000000pt" viewBox="0 0 1079.000000 1079.000000"
 preserveAspectRatio="xMidYMid meet">

<g transform="translate(0.000000,1079.000000) scale(0.100000,-0.100000)"
fill="#000000" stroke="none">
<path d="M4336 8297 c-30 -31 -33 -66 -8 -97 19 -24 34 -26 367 -60 242 -24
269 -36 343 -162 26 -46 262 -463 523 -927 261 -464 490 -862 510 -885 70 -79
198 -124 312 -111 29 3 147 12 262 21 116 8 300 21 410 30 110 8 290 21 400
29 184 13 201 16 218 36 22 28 22 61 -2 90 l-19 23 -183 -12 c-202 -14 -439
-30 -887 -63 l-292 -21 -53 26 c-29 14 -62 38 -74 54 -17 23 -398 695 -744
1314 -329 587 -335 596 -434 642 -69 33 -71 33 -420 71 -71 8 -147 17 -167 21
-31 5 -40 2 -62 -19z"/>
<path d="M5665 7758 c-39 -30 -32 -55 73 -253 49 -94 189 -361 311 -595 222
-427 251 -472 308 -486 15 -4 313 -1 663 7 l635 15 45 24 c24 14 54 39 65 56
11 16 57 136 102 265 45 129 121 347 169 484 96 276 103 320 67 390 -26 50
-58 80 -105 100 -33 13 -170 15 -1171 15 l-1134 0 -28 -22z m1957 -400 c90
-46 98 -54 98 -105 0 -61 -73 -194 -145 -262 -29 -28 -58 -51 -63 -51 -6 0
-38 -21 -73 -47 -70 -51 -194 -123 -214 -123 -7 0 -18 -6 -24 -14 -30 -35 72
-82 160 -74 63 6 193 72 323 162 60 42 111 74 114 72 7 -8 -163 -191 -202
-218 -17 -12 -44 -34 -59 -49 -56 -53 -125 -82 -207 -87 -63 -4 -83 -1 -116
16 -55 29 -108 88 -137 153 -14 31 -30 59 -35 63 -6 4 -37 8 -69 10 -75 5
-133 16 -133 26 0 14 30 20 68 15 20 -3 59 -2 87 2 l50 8 17 74 c9 40 25 83
35 95 11 11 31 39 45 61 37 58 123 144 198 197 76 53 177 107 202 108 10 0 46
-14 80 -32z"/>
<path d="M7493 7128 c-37 -28 -92 -72 -121 -97 -59 -49 -158 -174 -143 -179 5
-2 38 11 73 29 76 38 210 169 251 247 16 28 24 52 18 52 -5 0 -40 -23 -78 -52z"/>
<path d="M7405 5974 c-72 -37 -105 -95 -105 -184 0 -173 156 -250 264 -130 60
67 72 154 31 236 -40 81 -121 114 -190 78z"/>
<path d="M6335 5852 c-69 -44 -95 -93 -95 -174 0 -206 254 -269 326 -82 34 89
7 195 -64 249 -38 28 -128 32 -167 7z"/>
<path d="M3755 5586 c-103 -17 -144 -30 -230 -75 -169 -87 -261 -241 -272
-451 -7 -130 6 -204 52 -296 68 -138 186 -221 454 -320 191 -70 241 -115 241
-217 0 -67 -24 -113 -74 -141 -117 -68 -321 -59 -545 23 -64 23 -87 28 -92 19
-21 -33 -89 -313 -89 -363 0 -27 36 -42 206 -87 114 -30 127 -31 324 -31 181
-1 214 2 285 21 253 70 411 216 460 426 21 87 19 246 -3 327 -50 180 -159 275
-457 398 -237 98 -287 132 -301 206 -17 92 38 164 143 185 91 19 218 6 340
-35 55 -19 108 -35 116 -35 8 0 24 22 36 50 27 63 84 287 76 300 -8 14 -149
56 -263 80 -130 26 -304 33 -407 16z"/>
<path d="M2325 5053 c-263 -36 -457 -213 -526 -478 -27 -104 -36 -271 -19
-372 37 -234 135 -386 308 -476 121 -64 201 -80 397 -81 177 0 259 11 409 56
l69 21 -7 59 c-8 78 -31 166 -61 235 -22 49 -28 55 -47 49 -173 -51 -217 -59
-329 -60 -110 -1 -118 1 -175 29 -64 33 -124 106 -124 151 0 35 35 38 425 31
193 -3 356 -3 363 2 7 4 17 52 24 114 10 92 10 121 -5 214 -43 268 -202 448
-442 498 -65 14 -191 17 -260 8z m205 -343 c22 -11 51 -37 64 -58 32 -49 53
-119 39 -133 -10 -10 -170 -15 -352 -11 l-74 2 6 41 c8 61 54 128 106 156 58
31 154 32 211 3z"/>
<path d="M6795 5046 c-256 -49 -432 -225 -491 -491 -26 -119 -24 -323 5 -435
34 -128 82 -221 154 -294 72 -72 140 -114 252 -152 74 -25 91 -27 245 -27 152
-1 171 2 245 26 261 86 404 285 430 597 14 170 -30 379 -106 506 -73 120 -209
220 -355 259 -81 22 -290 28 -379 11z m264 -371 c88 -46 133 -158 133 -330 0
-231 -82 -355 -233 -355 -93 0 -174 59 -203 148 -46 137 -39 326 15 439 31 65
70 98 133 114 40 10 121 2 155 -16z"/>
<path d="M8100 5050 c-58 -5 -130 -13 -160 -17 l-55 -8 -3 -673 -2 -672 27
-12 c34 -13 325 -14 368 -1 l30 9 3 157 3 157 82 0 c100 0 243 23 317 50 107
39 208 129 260 230 73 142 67 407 -12 541 -62 106 -192 193 -334 225 -84 18
-376 26 -524 14z m387 -344 c77 -36 106 -86 106 -180 -1 -102 -34 -159 -111
-191 -36 -16 -142 -22 -161 -11 -12 8 -17 387 -4 399 16 17 120 6 170 -17z"/>
<path d="M4818 5043 c-20 -2 -41 -10 -47 -17 -8 -9 -10 -213 -9 -682 l3 -668
35 -9 c46 -12 327 -11 365 0 l30 9 5 250 5 249 195 0 195 0 5 -250 5 -249 35
-9 c47 -11 327 -11 365 0 l30 9 3 671 c2 614 1 672 -14 684 -23 19 -368 20
-401 1 -22 -12 -23 -16 -25 -240 l-3 -227 -195 0 -195 0 -3 226 c-2 190 -5
229 -18 240 -15 13 -287 22 -366 12z"/>
<path d="M3282 3123 c-20 -4 -22 -9 -16 -26 4 -12 9 -110 11 -217 3 -155 6
-197 18 -206 19 -14 124 0 179 25 59 26 87 61 93 115 5 40 2 48 -24 73 -16 15
-38 33 -48 39 -19 11 -19 12 11 40 58 55 54 106 -12 137 -34 17 -170 30 -212
20z m164 -74 c31 -26 -1 -80 -57 -94 -33 -8 -42 12 -33 73 7 44 7 44 41 39 19
-4 41 -11 49 -18z m18 -180 c35 -28 34 -64 -4 -99 -40 -37 -80 -47 -97 -24
-13 18 -18 125 -6 137 14 15 81 6 107 -14z"/>
<path d="M6283 3119 c-23 -8 -23 -10 -23 -224 0 -198 1 -215 18 -215 37 0 44
15 44 90 -1 49 4 80 14 95 51 78 103 7 90 -123 -7 -69 3 -84 43 -62 19 10 21
20 21 98 0 106 -13 157 -46 178 -23 15 -28 15 -66 1 -22 -9 -45 -14 -50 -11
-5 3 -8 42 -7 85 1 44 -2 84 -7 89 -5 4 -19 4 -31 -1z"/>
<path d="M4504 3106 c-3 -8 -1 -23 5 -35 18 -33 14 -118 -6 -130 -17 -9 -17
-11 0 -39 12 -22 17 -52 17 -115 0 -58 4 -88 13 -94 6 -4 57 -7 111 -6 83 1
102 4 113 19 27 36 17 44 -58 44 -96 0 -109 8 -109 70 0 56 15 70 74 70 26 0
38 6 46 21 16 28 8 33 -58 39 l-57 5 -3 38 c-5 55 10 67 79 67 59 0 89 15 89
46 0 21 -248 21 -256 0z"/>
<path d="M7434 3105 c-6 -16 13 -265 21 -273 2 -2 11 -2 19 1 13 5 18 46 29
252 2 27 -1 30 -31 33 -22 2 -34 -2 -38 -13z"/>
<path d="M6091 3096 c-6 -7 -9 -20 -6 -28 3 -8 -6 -24 -20 -36 -30 -26 -31
-38 -5 -52 18 -10 20 -21 20 -129 0 -179 10 -208 66 -182 22 10 23 14 13 33
-14 27 -24 191 -15 241 4 23 14 38 26 42 26 8 26 41 0 48 -15 4 -20 14 -20 41
0 31 -3 36 -24 36 -13 0 -29 -6 -35 -14z"/>
<path d="M6600 3049 c-9 -15 -8 -24 1 -35 27 -33 79 1 58 39 -14 23 -46 21
-59 -4z"/>
<path d="M5045 3000 c-3 -6 -18 -54 -33 -107 -15 -53 -32 -98 -39 -100 -8 -3
-23 30 -41 89 -26 84 -31 93 -53 93 -17 0 -25 -6 -26 -20 -4 -31 71 -257 90
-269 10 -7 25 -7 44 0 22 7 32 21 47 64 35 103 74 245 69 253 -6 11 -51 9 -58
-3z"/>
<path d="M3842 2968 c-7 -7 -12 -41 -12 -83 0 -79 -17 -115 -54 -115 -36 0
-45 19 -48 105 -3 70 -5 80 -22 83 -32 6 -46 -26 -46 -102 0 -80 13 -138 36
-156 20 -17 69 -15 96 4 30 21 35 20 42 -9 6 -25 30 -33 51 -17 7 4 10 58 7
155 -4 130 -6 147 -21 147 -9 0 -22 -5 -29 -12z"/>
<path d="M4002 2963 c-4 -10 -6 -60 -6 -111 1 -77 5 -99 21 -120 24 -32 61
-39 102 -18 37 20 45 9 37 -49 -9 -54 -36 -90 -81 -105 -19 -6 -35 -15 -35
-20 0 -78 127 -33 166 59 10 24 14 80 14 203 l0 169 -27 -3 c-28 -3 -28 -4
-33 -86 -4 -68 -9 -86 -24 -98 -27 -19 -40 -18 -61 6 -14 16 -18 37 -17 105 0
83 -1 85 -24 85 -14 0 -28 -8 -32 -17z"/>
<path d="M5512 2968 c-8 -8 -12 -56 -12 -150 0 -125 2 -138 18 -138 33 0 42
16 48 90 7 82 20 104 71 125 25 11 33 20 33 39 0 36 -16 40 -57 16 -37 -21
-52 -16 -53 18 0 15 -32 16 -48 0z"/>
<path d="M5752 2968 c-13 -13 -16 -126 -6 -190 12 -68 71 -100 120 -63 36 27
47 19 41 -30 -10 -66 -33 -104 -75 -122 -46 -19 -45 -18 -37 -42 15 -47 109
-10 149 59 19 31 21 55 24 209 2 95 0 177 -5 181 -4 4 -18 4 -30 -1 -21 -8
-23 -15 -23 -78 0 -59 -4 -74 -23 -97 -51 -58 -95 11 -83 129 5 54 5 57 -17
57 -13 0 -28 -5 -35 -12z"/>
<path d="M6792 2965 c-21 -15 -22 -23 -22 -151 0 -143 2 -149 51 -124 16 9 19
22 19 95 0 78 2 86 24 100 52 34 76 -6 76 -125 0 -43 4 -81 8 -84 5 -3 18 -2
30 1 21 5 22 11 22 97 0 110 -13 161 -46 182 -23 16 -28 16 -67 0 -40 -16 -42
-16 -57 4 -14 19 -17 19 -38 5z"/>
<path d="M5261 2952 c-56 -28 -76 -64 -76 -138 0 -58 3 -66 30 -94 54 -54 185
-52 185 3 0 23 -3 24 -49 19 -54 -5 -80 13 -46 32 44 25 95 83 101 113 5 25 1
37 -19 57 -31 31 -76 34 -126 8z m77 -59 c4 -26 -41 -73 -69 -73 -26 0 -25 40
2 74 26 33 62 32 67 -1z"/>
<path d="M7197 2956 c-50 -18 -67 -34 -88 -81 -43 -94 -5 -185 78 -185 16 0
38 7 49 15 28 21 34 18 34 -14 0 -65 -41 -125 -92 -136 -23 -5 -28 -12 -26
-28 3 -19 9 -22 46 -21 34 1 50 7 78 35 47 45 57 90 55 248 -2 123 -3 136 -24
157 -25 27 -55 29 -110 10z m73 -101 c0 -81 -46 -120 -92 -78 -45 41 -1 132
65 133 26 0 27 -2 27 -55z"/>
<path d="M6612 2942 c-9 -7 -12 -41 -10 -138 3 -120 4 -129 23 -132 37 -4 41
8 37 146 -4 115 -6 132 -21 132 -9 0 -22 -4 -29 -8z"/>
<path d="M7442 2758 c-16 -16 -15 -33 4 -52 21 -21 54 -4 54 28 0 33 -35 47
-58 24z"/>
</g>
</svg>
